<svg viewBox="0 0 462 363" xml:space="preserve" xmlns="http://www.w3.org/2000/svg">
  <path d="M149.68 76.69c17.07-8.89 34.04-17.29 52.34-22a384.6 384.6 0 0 1 44.72-8.49c10.45-1.4 21.17-1.05 31.77-1.16 19.36-.19 38.24 3.24 56.63 9.01 9.74 3.06 19.9 5.94 28.52 11.15 17.72 10.7 30.04 26.63 38.42 45.6 7.65 17.31 11.2 35.6 14.04 54.19a355.55 355.55 0 0 1 3.86 61.24c-.31 15.37-4.9 29.31-15.47 40.73-8.66 9.34-19.8 15.64-31.49 19.7-16.88 5.86-34.42 9.88-51.77 14.35a547.1 547.1 0 0 1-33.41 7.5c-12.85 2.47-25.81 4.34-38.72 6.52-11.3 1.9-22.55 4.08-33.88 5.75-11.36 1.66-22.79 2.93-34.2 4.2-10.14 1.13-20.29 2.54-30.46 2.9-15.91.57-29.64-5-41.87-15.42-9.96-8.47-19.14-17.32-26.36-28.35-6.48-9.91-11.3-20.46-12.14-32.09-.96-13.47-.38-27.07-.22-40.61.14-11.27.64-22.54 1.01-33.81.52-15.48 2.37-30.6 9.84-44.63 5.18-9.73 11.83-18.17 20.6-24.64 11.42-8.44 23.26-16.34 35.07-24.26 4.06-2.72 8.56-4.8 13.17-7.38z" fill="#2470A7"/>
</svg>
