<svg viewBox="0 0 424 371" xml:space="preserve" xmlns="http://www.w3.org/2000/svg">
  <path d="M177.76 80.72c8.68-5.34 16.9-10.78 25.57-15.4 7.46-3.99 15.32-7.3 23.17-10.46a395.77 395.77 0 0 1 26.65-9.75c7.5-2.41 15.2-4.17 22.86-6.05 7.93-1.95 15.84-4.3 23.9-5.33 6.45-.82 13.11-3.76 19.67-.17 1.39.76 2.84 1.45 4.11 2.38 5.27 3.87 9.23 8.58 11.38 15.02 3.3 9.94 7.41 19.63 10.9 29.52a321.25 321.25 0 0 1 6 19.6c4.2 14.88 8.23 29.82 12.43 44.71 2.7 9.61 5.8 19.12 8.34 28.77 2.06 7.83 3.48 15.82 5.3 23.72 1.86 8.15 4.61 16.19 5.63 24.44 1.5 12.16 4.48 24.6-1.74 36.47-.5.98-1.13 1.93-1.84 2.78-13.55 16.26-28.64 31.01-46.82 41.9-9.86 5.9-20.68 10.44-32.4 12.19-12.56 1.87-25.06 4.2-37.59 6.29-11.4 1.9-22.82 3.77-34.23 5.65-9.48 1.57-18.95 3.2-28.45 4.69-3.88.6-7.82 1.24-11.73 1.24-8.22 0-16.03 1.38-23.98 3.77-7.55 2.28-15.76 2.71-23.72 3.2-8.13.49-16.4.72-24.46-.21-5.43-.63-10.58-3.53-15.88-5.35-9.3-3.21-16.75-9.39-24.13-15.5a62.5 62.5 0 0 1-10.92-11.73c-5.25-7.35-10.33-14.9-14.58-22.86-4.08-7.61-5.87-16-6.34-24.82-.91-17.25 1.78-34.13 4.07-51.08.87-6.47 2.05-12.91 3.01-19.38 1.38-9.24 6.92-16.43 12.8-22.88 6.26-6.84 13.9-12.43 21.06-18.43a718.77 718.77 0 0 1 22.24-18.09c5.1-3.93 10.63-7.28 15.86-11.05 4.56-3.3 8.85-6.95 13.44-10.21a2264.6 2264.6 0 0 1 29.43-20.54c3.48-2.4 7.14-4.53 10.99-7.05z" fill="#D7A82E"/>
</svg>
