<svg viewBox="0 0 505 313" xml:space="preserve" xmlns="http://www.w3.org/2000/svg">
  <path d="M473.25 114.75c5.95 4.7 9.94 10.4 13.14 16.88 3.74 7.57 3.88 15.45 3.08 23.49-1.46 14.56-7.86 26.7-17.5 37.67-11.3 12.87-21.42 26.78-32.83 39.55-10.19 11.4-22.43 20.83-36.99 25.77-10.53 3.56-21.8 5.41-32.88 6.72-13.68 1.61-27.52 2.1-41.3 2.65-12.11.48-24.25.34-36.37.53-19.22.3-38.44.86-57.66.94-15.66.07-31.31-.47-46.97-.62-22.23-.21-44.46.06-66.67-.6-13.3-.4-26.5-3.09-38.46-9.05a61.13 61.13 0 0 1-21.48-17.39c-9.9-12.84-20.73-24.97-31.05-37.49-2.09-2.52-3.72-5.43-5.5-8.21-4.2-6.57-4.49-13.26-1.65-20.61 4.55-11.8 7.8-24.13 12.8-35.7 8.24-19.04 20.7-35 39.72-44.26 10.23-4.97 21.36-8.1 32.06-12.13 11.71-4.41 23.36-9 35.11-13.3 6.16-2.26 12.54-3.9 18.7-6.14 4.98-1.8 9.68-4.4 14.7-6.07 9.2-3.07 18.56-5.62 27.8-8.6 7.94-2.58 15.78-5.5 23.7-8.17 21.04-7.13 42.24-13.81 64.67-14.52 14.9-.48 29.59 1.6 43.71 6.5 10.58 3.68 21.2 7.36 31.4 11.96 9.3 4.2 18.16 9.49 27.03 14.61A365.2 365.2 0 0 1 415 72.54c10.1 6.8 20.03 13.83 29.92 20.91 8.57 6.13 17 12.46 25.47 18.73.93.68 1.74 1.54 2.86 2.57z" fill="#1E7246"/>
</svg>
