<svg width="220" height="220" viewBox="0 0 220 220" fill="none" xmlns="http://www.w3.org/2000/svg">
<rect width="220" height="220" fill="#E5E5E5"/>
<rect width="220" height="220" fill="white"/>
<path d="M220 0H0V220H220V0Z"/>
<path style="animation:a 6s infinite" d="M144.022 134.625C120.52 139.847 115.036 155.959 109.605 169.459L114.541 171.182L117.021 165.177C118.274 165.62 119.58 165.96 120.52 165.96C149.244 165.96 157.078 121.569 157.078 121.569C154.466 126.791 136.188 127.444 123.132 130.055C110.076 132.667 104.853 143.764 104.853 148.986C104.853 154.209 109.422 158.779 109.422 158.779C117.909 134.625 144.022 134.625 144.022 134.625Z" fill="#2470A6"/>
<path style="animation:c 6s infinite" d="M153.671 70.3279C113.481 79.2591 104.103 106.812 94.8157 129.899L103.255 132.846L107.498 122.575C109.641 123.334 111.874 123.915 113.481 123.915C162.603 123.915 176 48 176 48C171.534 56.9311 140.275 58.0476 117.947 62.5132C95.6195 66.9787 86.688 85.9575 86.688 94.8886C86.688 103.82 94.5032 111.635 94.5032 111.635C109.016 70.3279 153.671 70.3279 153.671 70.3279Z" fill="#166E42"/>
<path style="animation:b 6s infinite" d="M60.2728 111.502C89.564 118.011 96.3987 138.092 103.168 154.918L97.0171 157.066L93.9252 149.581C92.363 150.134 90.7357 150.557 89.564 150.557C53.7637 150.557 44 95.2292 44 95.2292C47.2545 101.738 70.0366 102.552 86.3095 105.807C102.582 109.061 109.091 122.893 109.091 129.402C109.091 135.912 103.396 141.607 103.396 141.607C92.8187 111.502 60.2728 111.502 60.2728 111.502Z" fill="#D8AA1F"/>
<style type="text/css">
    @keyframes a{0%,to{transform-origin:center;transform:scale(1.4)}50%{transform:scale(1)}
  </style> 
<style type="text/css">
    @keyframes b{50%,to{transform-origin:center;transform:scale(.8)}100%{transform:scale(1)}
</style> 

<style type="text/css">
    @keyframes c{0%,to{transform-origin:center;transform:scale(.6)}50%{transform:scale(1)}
  </style> 
</svg>
