<svg id="Layer_1" data-name="Layer 1" xmlns="http://www.w3.org/2000/svg" viewBox="0 0 133.62 53.66" width="144" height="60">
  <defs>
    <style>
      .cls-1{fill:#fff}
    </style>
  </defs>
  <circle class="cls-1" cx="26.83" cy="26.83" r="26.83"/>
  <path d="M3.13 22h1.74v8.1H8.8v1.46H3.13Zm8.78.7a.93.93 0 0 1-1 .93.91.91 0 0 1-1-.93 1 1 0 0 1 2 0Zm-1.86 8.83v-6.91h1.76v6.91Zm4.74-6.91 1.12 3.5c.19.61.34 1.17.46 1.73h.05c.12-.56.28-1.1.46-1.73l1.1-3.5h1.84l-2.64 6.91h-1.71l-2.57-6.91Zm6.09 2.23c0-.94 0-1.6-.05-2.23h1.51l.06 1.32h.06a2 2 0 0 1 1.88-1.47 1.73 1.73 0 0 1 .41 0v1.64a3.12 3.12 0 0 0-.51 0 1.55 1.55 0 0 0-1.56 1.32 4 4 0 0 0-.05.53v3.58h-1.75ZM32.37 28a3.42 3.42 0 0 1-3.55 3.67 3.34 3.34 0 0 1-3.46-3.56 3.41 3.41 0 0 1 3.58-3.65A3.31 3.31 0 0 1 32.37 28Zm-5.21.07c0 1.33.66 2.34 1.72 2.34s1.69-1 1.69-2.37c0-1.07-.49-2.31-1.68-2.31s-1.73 1.2-1.73 2.35Zm15.94-6.61v8.12c0 .71 0 1.48.06 2H41.6l-.07-1.1a2.48 2.48 0 0 1-2.25 1.25c-1.65 0-3-1.4-3-3.53 0-2.31 1.43-3.68 3.09-3.68a2.19 2.19 0 0 1 1.94.9v-3.96Zm-1.74 6a2.3 2.3 0 0 0 0-.45 1.52 1.52 0 0 0-1.5-1.24c-1.12 0-1.74 1-1.74 2.29s.62 2.18 1.73 2.18a1.53 1.53 0 0 0 1.5-1.23 2.12 2.12 0 0 0 .06-.52Zm3.23 1.1a4 4 0 0 1-.06-.73c0-1.52.74-3.36 3-3.36a3.42 3.42 0 0 1 3.38 3.71 3.27 3.27 0 0 1-3.56 3.49 6.5 6.5 0 0 1-2.41-.43l.25-1.2a5.21 5.21 0 0 0 1.92.31 1.87 1.87 0 0 0 2.12-1.79Zm4.62-1.22a1.7 1.7 0 0 0-1.6-1.68 1.48 1.48 0 0 0-1.43 1.68Z" style="fill:#000"/>
  <path class="cls-1" d="M55.3 22.1a16.89 16.89 0 0 1 2.63-.2 4.42 4.42 0 0 1 3 .77 2.39 2.39 0 0 1 .82 1.91A2.55 2.55 0 0 1 60 27a2.4 2.4 0 0 1 1.34 1.84 18.08 18.08 0 0 0 .75 2.67h-1.8a14.07 14.07 0 0 1-.64-2.26c-.27-1.25-.72-1.64-1.71-1.67H57v3.93h-1.7Zm1.7 4.22h1c1.18 0 1.91-.62 1.91-1.57s-.73-1.53-1.87-1.53a5.25 5.25 0 0 0-1.04.08Zm7.57 2.24a1.88 1.88 0 0 0 2.13 1.79 5.19 5.19 0 0 0 1.91-.35l.26 1.2a6.56 6.56 0 0 1-2.42.43 3.27 3.27 0 0 1-3.55-3.49 3.41 3.41 0 0 1 3.37-3.71c2.24 0 3 1.84 3 3.36a4 4 0 0 1-.06.73Zm3-1.22a1.48 1.48 0 0 0-1.43-1.68 1.7 1.7 0 0 0-1.6 1.68Zm8.16 3.97a5 5 0 0 1-2 .36 3.32 3.32 0 0 1-3.56-3.52 3.57 3.57 0 0 1 3.85-3.68 4.4 4.4 0 0 1 1.68.32l-.31 1.31a3 3 0 0 0-1.32-.27A2.06 2.06 0 0 0 72 28.07a2 2 0 0 0 2.11 2.22 3.46 3.46 0 0 0 1.38-.29ZM77 21.46h1.76v10.07H77Zm7.55 10.07-.12-.77a2.55 2.55 0 0 1-2 .92 2 2 0 0 1-2.17-2.05c0-1.75 1.55-2.63 4.1-2.61v-.11c0-.46-.19-1.21-1.41-1.21a3.64 3.64 0 0 0-1.85.51l-.34-1.13a4.87 4.87 0 0 1 2.49-.61 2.58 2.58 0 0 1 2.75 2.9v2.5a11.28 11.28 0 0 0 .1 1.66Zm-.23-3.38c-1.23 0-2.41.24-2.41 1.29a.91.91 0 0 0 1 1 1.4 1.4 0 0 0 1.36-.95 1 1 0 0 0 .06-.38Zm3.55-1.47c0-.8 0-1.46-.06-2.06h1.5l.07 1h.05a2.39 2.39 0 0 1 2.12-1.17 2 2 0 0 1 1.92 1.27 2.71 2.71 0 0 1 .86-.86 2.28 2.28 0 0 1 1.38-.41c1.15 0 2.31.78 2.31 3v4.07h-1.7v-3.81c0-1.14-.39-1.83-1.23-1.83a1.35 1.35 0 0 0-1.22.93 2.62 2.62 0 0 0-.08.58v4.14h-1.7v-4c0-1-.39-1.65-1.2-1.65a1.36 1.36 0 0 0-1.24 1 1.5 1.5 0 0 0-.1.56v4.09h-1.7Zm15.91 4.85-.12-.77a2.57 2.57 0 0 1-2 .92 2 2 0 0 1-2.17-2.05c0-1.75 1.54-2.63 4.1-2.61v-.11c0-.46-.19-1.21-1.41-1.21a3.59 3.59 0 0 0-1.85.51l-.34-1.13a4.87 4.87 0 0 1 2.49-.61 2.58 2.58 0 0 1 2.85 2.9v2.5a11.28 11.28 0 0 0 .1 1.66Zm-.23-3.38c-1.23 0-2.41.24-2.41 1.29a.91.91 0 0 0 1 1 1.4 1.4 0 0 0 1.36-.95 1.26 1.26 0 0 0 .06-.38Zm8.62 3.16a4.76 4.76 0 0 1-1.69.36l-.31.52a1.06 1.06 0 0 1 1 1c0 .88-.76 1.19-1.62 1.19a2 2 0 0 1-1.06-.27l.26-.71a1.66 1.66 0 0 0 .76.23c.29 0 .56-.12.56-.41s-.37-.5-1.11-.56l.57-1a3.28 3.28 0 0 1-2.89-3.48 3.56 3.56 0 0 1 3.84-3.68 4.4 4.4 0 0 1 1.68.32l-.31 1.31a3 3 0 0 0-1.32-.27 2.06 2.06 0 0 0-2.11 2.24 2 2 0 0 0 2.11 2.22 3.46 3.46 0 0 0 1.38-.27ZM119.9 28a3.42 3.42 0 0 1-3.55 3.67 3.34 3.34 0 0 1-3.46-3.56 3.41 3.41 0 0 1 3.58-3.65A3.31 3.31 0 0 1 119.9 28Zm-5.4-4.45c0-1.08.41-1.69 1.07-1.69a1.89 1.89 0 0 1 .91.3 1.49 1.49 0 0 0 .6.26c.22 0 .34-.13.38-.61h.83c0 1.13-.35 1.64-1.06 1.64a1.9 1.9 0 0 1-.93-.3 1.26 1.26 0 0 0-.57-.24c-.21 0-.34.23-.36.64Zm.2 4.52c0 1.33.65 2.34 1.71 2.34s1.69-1 1.69-2.37c0-1.07-.48-2.31-1.68-2.31s-1.72 1.2-1.72 2.35Zm7.86.49a1.88 1.88 0 0 0 2.13 1.79 5.11 5.11 0 0 0 1.91-.35l.26 1.2a6.54 6.54 0 0 1-2.41.43 3.27 3.27 0 0 1-3.56-3.49 3.42 3.42 0 0 1 3.38-3.71c2.23 0 3 1.84 3 3.36a5.49 5.49 0 0 1 0 .73Zm3-1.22a1.48 1.48 0 0 0-1.43-1.68 1.71 1.71 0 0 0-1.61 1.68Zm3 2.58a3.92 3.92 0 0 0 1.77.5c.77 0 1.11-.31 1.11-.77s-.28-.7-1.13-1c-1.35-.47-1.92-1.21-1.9-2 0-1.22 1-2.17 2.6-2.17a4.06 4.06 0 0 1 1.83.41l-.34 1.23a3.11 3.11 0 0 0-1.46-.4c-.62 0-1 .3-1 .73s.33.65 1.2 1c1.25.45 1.83 1.09 1.85 2.11 0 1.25-1 2.16-2.81 2.16a4.49 4.49 0 0 1-2.1-.48Z"/>
</svg>
